# xmcd CD database file
#
# Track frame offsets:
#	150
#	14308
#	37195
#	55962
#	75361
#	98401
#	116890
#	142398
#	161588
#	172772
#	190207
#	219904
#	233876
#
# Disc length: 3347 seconds
#
# Revision: 0
# Processed by: cddbd v1.5PL3 Copyright (c) Steve Scherf et al.
# Submitted via: CDex 1.51
#
DISCID=a90d110d
DTITLE=The Promise Ring - Wood/Water
DYEAR=2002
DGENRE=Alt Rock
TTITLE0=Size Of Your Life
TTITLE1=Stop Playing Guitar
TTITLE2=Suffer Never
TTITLE3=Become One Anything One Time
TTITLE4=Wake Up April
TTITLE5=Get On The Floor
TTITLE6=Half Year Sun
TTITLE7=My Life Is At Home
TTITLE8=Letters To The Reaches
TTITLE9=Bread And Coffe
TTITLE10=Say Goodbye Good
TTITLE11=Feed The Night
TTITLE12=All Good Souls
EXTD=YEAR: 2002
EXTT0=
EXTT1=
EXTT2=
EXTT3=
EXTT4=
EXTT5=
EXTT6=
EXTT7=
EXTT8=
EXTT9=
EXTT10=
EXTT11=
EXTT12=
PLAYORDER=
